<?xml version="1.0" standalone="no"?>
<!DOCTYPE svg PUBLIC "-//W3C//DTD SVG 20010904//EN"
 "http://www.w3.org/TR/2001/REC-SVG-20010904/DTD/svg10.dtd">
<svg version="1.0" xmlns="http://www.w3.org/2000/svg"
 width="448.000000pt" height="512.000000pt" viewBox="0 0 448.000000 512.000000"
 preserveAspectRatio="xMidYMid meet">

<g transform="translate(0.000000,512.000000) scale(0.100000,-0.100000)"
fill="#000000" stroke="none">
<path d="M1970 4790 c-387 -53 -697 -172 -1000 -384 -223 -156 -437 -374 -588
-598 -76 -113 -76 -113 74 -69 106 31 220 59 349 86 44 9 98 20 120 25 92 21
498 95 685 124 398 63 909 106 1249 106 333 0 770 -46 946 -101 39 -12 117
-36 174 -55 58 -18 106 -32 108 -30 8 8 -99 138 -187 226 -242 245 -479 405
-794 535 -316 131 -772 185 -1136 135z"/>
<path d="M1560 3720 c-290 -10 -557 -30 -955 -71 -55 -6 -150 -14 -212 -19
-62 -5 -116 -11 -121 -14 -26 -16 -126 -257 -162 -391 -66 -242 -78 -310 -92
-506 -23 -333 12 -595 125 -949 78 -242 272 -553 489 -782 204 -216 529 -436
793 -537 33 -12 69 -27 80 -31 60 -25 182 -56 370 -93 96 -19 145 -21 390 -22
294 0 310 2 560 56 139 31 391 122 424 154 12 12 6 24 -45 82 -322 370 -603
648 -894 884 -275 222 -562 421 -904 626 -132 79 -246 149 -253 155 -7 6 -13
20 -13 32 0 20 -4 21 -72 18 -116 -6 -189 37 -236 137 -15 32 -49 78 -79 107
-68 66 -68 79 -3 71 59 -7 90 -29 132 -92 53 -80 142 -114 225 -85 23 8 35 24
54 68 13 31 26 60 27 64 2 4 -4 8 -14 8 -32 0 -148 32 -187 52 -67 34 -122 93
-157 170 -30 64 -34 85 -38 178 -5 121 4 163 51 241 23 39 31 61 26 75 -12 30
-9 135 5 179 12 40 13 40 57 37 27 -2 74 -18 122 -42 l78 -40 120 12 c93 9
147 9 238 -1 l118 -12 79 40 c43 23 95 43 116 47 52 9 63 -15 64 -146 1 -99 2
-108 31 -152 45 -70 56 -122 51 -235 -8 -156 -58 -258 -161 -329 -49 -34 -84
-46 -189 -68 l-56 -11 24 -40 c22 -37 24 -51 24 -170 0 -71 4 -135 8 -141 16
-24 340 -39 827 -39 435 1 496 3 655 23 498 63 754 149 923 311 108 103 142
182 142 331 -1 201 -84 356 -266 490 -271 201 -740 324 -1394 364 -165 11
-689 14 -925 6z"/>
<path d="M4390 2002 c-125 -60 -190 -85 -315 -118 -64 -16 -83 -20 -265 -53
-366 -64 -942 -69 -1269 -11 -30 6 -57 8 -60 5 -3 -4 206 -224 289 -305 3 -3
44 -48 91 -100 200 -224 406 -486 533 -678 38 -56 74 -102 81 -102 36 0 292
209 425 346 213 220 395 508 485 769 15 44 32 88 37 99 11 20 48 149 48 166 0
15 -20 11 -80 -18z"/>
</g>
</svg>
